<?xml version="1.0" encoding="UTF-8" standalone="no"?>
<!DOCTYPE svg PUBLIC "-//W3C//DTD SVG 1.1//EN"
 "http://www.w3.org/Graphics/SVG/1.1/DTD/svg11.dtd">
<!-- Generated by graphviz version 2.40.1 (20161225.0304)
 -->
<!-- Title: dependencies Pages: 1 -->
<svg width="1032pt" height="284pt"
 viewBox="0.00 0.00 1032.00 284.00" xmlns="http://www.w3.org/2000/svg" xmlns:xlink="http://www.w3.org/1999/xlink">
<g id="graph0" class="graph" transform="scale(1 1) rotate(0) translate(4 280)">
<title>dependencies</title>
<polygon fill="#ffffff" stroke="transparent" points="-4,4 -4,-280 1028,-280 1028,4 -4,4"/>
<text text-anchor="start" x="491.0091" y="-42.4" font-family="sans-serif" font-weight="bold" font-size="14.00" fill="#000000">Legend</text>
<polygon fill="#ffffb3" stroke="transparent" points="278,-10 278,-30 298,-30 298,-10 278,-10"/>
<text text-anchor="start" x="301.629" y="-15.4" font-family="sans-serif" font-size="14.00" fill="#000000"> &#160;Declarations</text>
<polygon fill="#8dd3c7" stroke="transparent" points="391,-10 391,-30 411,-30 411,-10 391,-10"/>
<text text-anchor="start" x="414.7251" y="-15.4" font-family="sans-serif" font-size="14.00" fill="#000000"> &#160;Module</text>
<polygon fill="#80b1d3" stroke="transparent" points="477,-10 477,-30 497,-30 497,-10 477,-10"/>
<text text-anchor="start" x="500.7812" y="-15.4" font-family="sans-serif" font-size="14.00" fill="#000000"> &#160;Bootstrap</text>
<polygon fill="#fdb462" stroke="transparent" points="574,-10 574,-30 594,-30 594,-10 574,-10"/>
<text text-anchor="start" x="597.6732" y="-15.4" font-family="sans-serif" font-size="14.00" fill="#000000"> &#160;Providers</text>
<polygon fill="#fb8072" stroke="transparent" points="670,-10 670,-30 690,-30 690,-10 670,-10"/>
<text text-anchor="start" x="693.7258" y="-15.4" font-family="sans-serif" font-size="14.00" fill="#000000"> &#160;Exports</text>
<g id="clust1" class="cluster">
<title>cluster_AppModule</title>
<polygon fill="none" stroke="#000000" stroke-dasharray="1,5" points="8,-70 8,-268 1016,-268 1016,-70 8,-70"/>
</g>
<g id="clust2" class="cluster">
<title>cluster_AppModule_declarations</title>
<polygon fill="none" stroke="#000000" points="420,-78 420,-130 1008,-130 1008,-78 420,-78"/>
</g>
<g id="clust7" class="cluster">
<title>cluster_AppModule_imports</title>
<polygon fill="none" stroke="#000000" points="268,-78 268,-130 412,-130 412,-78 268,-78"/>
</g>
<g id="clust9" class="cluster">
<title>cluster_AppModule_bootstrap</title>
<polygon fill="none" stroke="#000000" points="521,-208 521,-260 645,-260 645,-208 521,-208"/>
</g>
<g id="clust10" class="cluster">
<title>cluster_AppModule_providers</title>
<polygon fill="none" stroke="#000000" points="16,-78 16,-130 260,-130 260,-78 16,-78"/>
</g>
<!-- AppComponent -->
<g id="node1" class="node">
<title>AppComponent</title>
<polygon fill="#ffffb3" stroke="#000000" points="999.9399,-122 894.0601,-122 894.0601,-86 999.9399,-86 999.9399,-122"/>
<text text-anchor="middle" x="947" y="-99.8" font-family="Times,serif" font-size="14.00" fill="#000000">AppComponent</text>
</g>
<!-- AppModule -->
<g id="node5" class="node">
<title>AppModule</title>
<polygon fill="#8dd3c7" stroke="#000000" points="624.6571,-187 621.6571,-191 600.6571,-191 597.6571,-187 541.3429,-187 541.3429,-151 624.6571,-151 624.6571,-187"/>
<text text-anchor="middle" x="583" y="-164.8" font-family="Times,serif" font-size="14.00" fill="#000000">AppModule</text>
</g>
<!-- AppComponent&#45;&gt;AppModule -->
<g id="edge1" class="edge">
<title>AppComponent&#45;&gt;AppModule</title>
<path fill="none" stroke="#000000" d="M947,-122.2843C947,-143.3211 947,-175 947,-175 947,-175 634.7554,-175 634.7554,-175"/>
<polygon fill="#000000" stroke="#000000" points="634.7555,-171.5001 624.7554,-175 634.7554,-178.5001 634.7555,-171.5001"/>
</g>
<!-- NewPostComponent -->
<g id="node2" class="node">
<title>NewPostComponent</title>
<polygon fill="#ffffb3" stroke="#000000" points="875.8781,-122 744.1219,-122 744.1219,-86 875.8781,-86 875.8781,-122"/>
<text text-anchor="middle" x="810" y="-99.8" font-family="Times,serif" font-size="14.00" fill="#000000">NewPostComponent</text>
</g>
<!-- NewPostComponent&#45;&gt;AppModule -->
<g id="edge2" class="edge">
<title>NewPostComponent&#45;&gt;AppModule</title>
<path fill="none" stroke="#000000" d="M810,-122.0225C810,-139.3734 810,-163 810,-163 810,-163 634.8998,-163 634.8998,-163"/>
<polygon fill="#000000" stroke="#000000" points="634.8999,-159.5001 624.8998,-163 634.8998,-166.5001 634.8999,-159.5001"/>
</g>
<!-- PostListComponent -->
<g id="node3" class="node">
<title>PostListComponent</title>
<polygon fill="#ffffb3" stroke="#000000" points="725.7288,-122 598.2712,-122 598.2712,-86 725.7288,-86 725.7288,-122"/>
<text text-anchor="middle" x="662" y="-99.8" font-family="Times,serif" font-size="14.00" fill="#000000">PostListComponent</text>
</g>
<!-- PostListComponent&#45;&gt;AppModule -->
<g id="edge3" class="edge">
<title>PostListComponent&#45;&gt;AppModule</title>
<path fill="none" stroke="#000000" d="M611.607,-122.1061C611.607,-122.1061 611.607,-140.991 611.607,-140.991"/>
<polygon fill="#000000" stroke="#000000" points="608.107,-140.9909 611.607,-150.991 615.107,-140.991 608.107,-140.9909"/>
</g>
<!-- PostListItemComponent -->
<g id="node4" class="node">
<title>PostListItemComponent</title>
<polygon fill="#ffffb3" stroke="#000000" points="580.385,-122 427.615,-122 427.615,-86 580.385,-86 580.385,-122"/>
<text text-anchor="middle" x="504" y="-99.8" font-family="Times,serif" font-size="14.00" fill="#000000">PostListItemComponent</text>
</g>
<!-- PostListItemComponent&#45;&gt;AppModule -->
<g id="edge4" class="edge">
<title>PostListItemComponent&#45;&gt;AppModule</title>
<path fill="none" stroke="#000000" d="M560.8072,-122.1061C560.8072,-122.1061 560.8072,-140.991 560.8072,-140.991"/>
<polygon fill="#000000" stroke="#000000" points="557.3072,-140.9909 560.8072,-150.991 564.3072,-140.991 557.3072,-140.9909"/>
</g>
<!-- AppComponent  -->
<g id="node7" class="node">
<title>AppComponent </title>
<polygon fill="#80b1d3" stroke="#000000" points="637.439,-252 528.561,-252 528.561,-216 637.439,-216 637.439,-252"/>
<text text-anchor="middle" x="583" y="-229.8" font-family="Times,serif" font-size="14.00" fill="#000000">AppComponent </text>
</g>
<!-- AppModule&#45;&gt;AppComponent  -->
<g id="edge6" class="edge">
<title>AppModule&#45;&gt;AppComponent </title>
<path fill="none" stroke="#000000" stroke-dasharray="1,5" d="M583,-187.1061C583,-187.1061 583,-205.991 583,-205.991"/>
<polygon fill="#000000" stroke="#000000" points="579.5001,-205.9909 583,-215.991 586.5001,-205.991 579.5001,-205.9909"/>
</g>
<!-- AppRoutingModule -->
<g id="node6" class="node">
<title>AppRoutingModule</title>
<polygon fill="#8dd3c7" stroke="#000000" points="404.2744,-122 401.2744,-126 380.2744,-126 377.2744,-122 275.7256,-122 275.7256,-86 404.2744,-86 404.2744,-122"/>
<text text-anchor="middle" x="340" y="-99.8" font-family="Times,serif" font-size="14.00" fill="#000000">AppRoutingModule</text>
</g>
<!-- AppRoutingModule&#45;&gt;AppModule -->
<g id="edge5" class="edge">
<title>AppRoutingModule&#45;&gt;AppModule</title>
<path fill="none" stroke="#000000" d="M340,-122.0225C340,-139.3734 340,-163 340,-163 340,-163 531.2268,-163 531.2268,-163"/>
<polygon fill="#000000" stroke="#000000" points="531.2268,-166.5001 541.2268,-163 531.2268,-159.5001 531.2268,-166.5001"/>
</g>
<!-- DbCommunicationService -->
<g id="node8" class="node">
<title>DbCommunicationService</title>
<ellipse fill="#fdb462" stroke="#000000" cx="138" cy="-104" rx="114.046" ry="18"/>
<text text-anchor="middle" x="138" y="-99.8" font-family="Times,serif" font-size="14.00" fill="#000000">DbCommunicationService</text>
</g>
<!-- DbCommunicationService&#45;&gt;AppModule -->
<g id="edge7" class="edge">
<title>DbCommunicationService&#45;&gt;AppModule</title>
<path fill="none" stroke="#000000" d="M138,-122.2843C138,-143.3211 138,-175 138,-175 138,-175 531.1355,-175 531.1355,-175"/>
<polygon fill="#000000" stroke="#000000" points="531.1355,-178.5001 541.1355,-175 531.1354,-171.5001 531.1355,-178.5001"/>
</g>
</g>
</svg>
